# xmcd
#
# Track frame offsets: 
#        150
#        12458
#        23986
#        37054
#        49606
#        61510
#        72767
#        84379
#        95961
#        106625
#        117826
#        128741
#        140722
#        152696
#        164524
#        173264
#        184040
#        193555
#        205167
#        217134
#        227771
#        239320
#        249643
#
# Disc length: 3454 seconds
#
# Revision: 0
# Processed by: cddbd v1.5.2PL0 Copyright (c) Steve Scherf et al.
# Submitted via: ExactAudioCopy v0.99pb4
#
DISCID=3a0d7c17
DTITLE=Sonny Burns - Satans A Waitin'
DYEAR=2010
DGENRE=Country
TTITLE0=I'm Not Long For This World
TTITLE1=Wrong About You (with George Jones)
TTITLE2=Six Feet Of Earth
TTITLE3=A Place For Girls Like You
TTITLE4=Girl Of The Street
TTITLE5=Powder And Paint
TTITLE6=It's Easier Said Than Done
TTITLE7=Satans A-Waitin'
TTITLE8=If You See My Baby
TTITLE9=Think Again
TTITLE10=Blue Blue Rain
TTITLE11=Waltzing With Sin
TTITLE12=Tell Her
TTITLE13=Heartbroken Me (with George Jones)
TTITLE14=A Real Cool Cat
TTITLE15=You'll Look A Long Time
TTITLE16=Let's Change Sweethearts
TTITLE17=Frown Of The Moon
TTITLE18=Invitations (To Your Wedding)
TTITLE19=Tho' You're In My Arms
TTITLE20=Heart Like A Dollar Sign
TTITLE21=Too Hot To Handle
TTITLE22=Another Woman Looking For A Man
EXTD=
EXTT0=
EXTT1=
EXTT2=
EXTT3=
EXTT4=
EXTT5=
EXTT6=
EXTT7=
EXTT8=
EXTT9=
EXTT10=
EXTT11=
EXTT12=
EXTT13=
EXTT14=
EXTT15=
EXTT16=
EXTT17=
EXTT18=
EXTT19=
EXTT20=
EXTT21=
EXTT22=
PLAYORDER=
